<mxfile host="app.diagrams.net" modified="2023-05-06T13:34:53.337Z" agent="Mozilla/5.0 (X11; Linux x86_64) AppleWebKit/537.36 (KHTML, like Gecko) Chrome/112.0.0.0 Safari/537.36" etag="svTxF8N9u2KqN2s5uvb_" version="21.2.9" type="github">
  <diagram id="zFlVRU_5h1scILDpNqvU" name="Page-1">
    <mxGraphModel dx="1750" dy="977" grid="0" gridSize="10" guides="1" tooltips="1" connect="1" arrows="1" fold="1" page="1" pageScale="1" pageWidth="1654" pageHeight="1169" background="#FFFFFF" math="0" shadow="0">
      <root>
        <mxCell id="0" />
        <mxCell id="1" parent="0" />
        <mxCell id="fAfMOuDEGAaXCi6AJNAk-10" value="" style="shape=cube;whiteSpace=wrap;html=1;boundedLbl=1;backgroundOutline=1;darkOpacity=0.05;darkOpacity2=0.1;size=100;perimeterSpacing=0;strokeColor=#b46504;fillColor=#fad7ac;" parent="1" vertex="1">
          <mxGeometry x="396" y="780" width="120" height="400" as="geometry" />
        </mxCell>
        <mxCell id="fAfMOuDEGAaXCi6AJNAk-14" value="3" style="text;html=1;strokeColor=none;fillColor=none;align=center;verticalAlign=middle;whiteSpace=wrap;rounded=0;fontStyle=1" parent="1" vertex="1">
          <mxGeometry x="486" y="1177" width="40" height="30" as="geometry" />
        </mxCell>
        <mxCell id="fAfMOuDEGAaXCi6AJNAk-15" value="224" style="text;html=1;strokeColor=none;fillColor=none;align=center;verticalAlign=middle;whiteSpace=wrap;rounded=0;fontStyle=1" parent="1" vertex="1">
          <mxGeometry x="406" y="1120" width="40" height="30" as="geometry" />
        </mxCell>
        <mxCell id="fAfMOuDEGAaXCi6AJNAk-16" value="224" style="text;html=1;strokeColor=none;fillColor=none;align=center;verticalAlign=middle;whiteSpace=wrap;rounded=0;fontStyle=1" parent="1" vertex="1">
          <mxGeometry x="356" y="920" width="40" height="30" as="geometry" />
        </mxCell>
        <mxCell id="fAfMOuDEGAaXCi6AJNAk-18" value="3" style="text;html=1;strokeColor=none;fillColor=none;align=center;verticalAlign=middle;whiteSpace=wrap;rounded=0;fontStyle=1" parent="1" vertex="1">
          <mxGeometry x="416" y="1010" width="40" height="30" as="geometry" />
        </mxCell>
        <mxCell id="fAfMOuDEGAaXCi6AJNAk-19" value="3" style="text;html=1;strokeColor=none;fillColor=none;align=center;verticalAlign=middle;whiteSpace=wrap;rounded=0;fontStyle=1" parent="1" vertex="1">
          <mxGeometry x="406" y="970" width="40" height="30" as="geometry" />
        </mxCell>
        <mxCell id="fAfMOuDEGAaXCi6AJNAk-21" value="" style="shape=cube;whiteSpace=wrap;html=1;boundedLbl=1;backgroundOutline=1;darkOpacity=0.05;darkOpacity2=0.1;strokeColor=#b46504;fillColor=#fad7ac;size=40;" parent="1" vertex="1">
          <mxGeometry x="230" y="360" width="110" height="240" as="geometry" />
        </mxCell>
        <mxCell id="fAfMOuDEGAaXCi6AJNAk-23" value="" style="shape=cube;whiteSpace=wrap;html=1;boundedLbl=1;backgroundOutline=1;darkOpacity=0.05;darkOpacity2=0.1;strokeColor=#C73500;fillColor=#fa6800;fontColor=#000000;size=8;" parent="1" vertex="1">
          <mxGeometry x="262" y="470" width="56" height="26.5" as="geometry" />
        </mxCell>
        <mxCell id="fAfMOuDEGAaXCi6AJNAk-24" value="3" style="text;html=1;strokeColor=none;fillColor=none;align=center;verticalAlign=middle;whiteSpace=wrap;rounded=0;fontStyle=1" parent="1" vertex="1">
          <mxGeometry x="242" y="489.5" width="40" height="30" as="geometry" />
        </mxCell>
        <mxCell id="fAfMOuDEGAaXCi6AJNAk-25" value="3" style="text;html=1;strokeColor=none;fillColor=none;align=center;verticalAlign=middle;whiteSpace=wrap;rounded=0;fontStyle=1" parent="1" vertex="1">
          <mxGeometry x="232" y="464.5" width="40" height="30" as="geometry" />
        </mxCell>
        <mxCell id="fAfMOuDEGAaXCi6AJNAk-26" value="112" style="text;html=1;strokeColor=none;fillColor=none;align=center;verticalAlign=middle;whiteSpace=wrap;rounded=0;fontStyle=1" parent="1" vertex="1">
          <mxGeometry x="192" y="420" width="40" height="30" as="geometry" />
        </mxCell>
        <mxCell id="fAfMOuDEGAaXCi6AJNAk-27" value="112" style="text;html=1;strokeColor=none;fillColor=none;align=center;verticalAlign=middle;whiteSpace=wrap;rounded=0;fontStyle=1" parent="1" vertex="1">
          <mxGeometry x="220" y="573" width="40" height="30" as="geometry" />
        </mxCell>
        <mxCell id="fAfMOuDEGAaXCi6AJNAk-28" value="192" style="text;html=1;strokeColor=none;fillColor=none;align=center;verticalAlign=middle;whiteSpace=wrap;rounded=0;fontStyle=1" parent="1" vertex="1">
          <mxGeometry x="282" y="600" width="40" height="30" as="geometry" />
        </mxCell>
        <mxCell id="fAfMOuDEGAaXCi6AJNAk-29" value="" style="shape=cube;whiteSpace=wrap;html=1;boundedLbl=1;backgroundOutline=1;darkOpacity=0.05;darkOpacity2=0.1;strokeColor=#b46504;fillColor=#fad7ac;size=40;" parent="1" vertex="1">
          <mxGeometry x="394" y="400" width="126" height="160" as="geometry" />
        </mxCell>
        <mxCell id="fAfMOuDEGAaXCi6AJNAk-31" value="" style="shape=cube;whiteSpace=wrap;html=1;boundedLbl=1;backgroundOutline=1;darkOpacity=0.05;darkOpacity2=0.1;strokeColor=#C73500;fillColor=#fa6800;fontColor=#000000;" parent="1" vertex="1">
          <mxGeometry x="436" y="960" width="30" height="67.5" as="geometry" />
        </mxCell>
        <mxCell id="fAfMOuDEGAaXCi6AJNAk-33" value="56" style="text;html=1;strokeColor=none;fillColor=none;align=center;verticalAlign=middle;whiteSpace=wrap;rounded=0;fontStyle=1" parent="1" vertex="1">
          <mxGeometry x="360" y="440.5" width="40" height="30" as="geometry" />
        </mxCell>
        <mxCell id="fAfMOuDEGAaXCi6AJNAk-34" value="56" style="text;html=1;strokeColor=none;fillColor=none;align=center;verticalAlign=middle;whiteSpace=wrap;rounded=0;fontStyle=1" parent="1" vertex="1">
          <mxGeometry x="386" y="540" width="40" height="15" as="geometry" />
        </mxCell>
        <mxCell id="fAfMOuDEGAaXCi6AJNAk-35" value="" style="shape=cube;whiteSpace=wrap;html=1;boundedLbl=1;backgroundOutline=1;darkOpacity=0.05;darkOpacity2=0.1;strokeColor=#C73500;fillColor=#fa6800;fontColor=#000000;size=8;" parent="1" vertex="1">
          <mxGeometry x="426" y="470.5" width="72" height="26.5" as="geometry" />
        </mxCell>
        <mxCell id="fAfMOuDEGAaXCi6AJNAk-36" value="3" style="text;html=1;strokeColor=none;fillColor=none;align=center;verticalAlign=middle;whiteSpace=wrap;rounded=0;fontStyle=1" parent="1" vertex="1">
          <mxGeometry x="410" y="490" width="40" height="30" as="geometry" />
        </mxCell>
        <mxCell id="fAfMOuDEGAaXCi6AJNAk-37" value="3" style="text;html=1;strokeColor=none;fillColor=none;align=center;verticalAlign=middle;whiteSpace=wrap;rounded=0;fontStyle=1" parent="1" vertex="1">
          <mxGeometry x="400" y="465" width="40" height="30" as="geometry" />
        </mxCell>
        <mxCell id="fAfMOuDEGAaXCi6AJNAk-38" value="" style="shape=cube;whiteSpace=wrap;html=1;boundedLbl=1;backgroundOutline=1;darkOpacity=0.05;darkOpacity2=0.1;strokeColor=#b46504;fillColor=#fad7ac;size=40;" parent="1" vertex="1">
          <mxGeometry x="564" y="420" width="136" height="120" as="geometry" />
        </mxCell>
        <mxCell id="fAfMOuDEGAaXCi6AJNAk-39" value="256" style="text;html=1;strokeColor=none;fillColor=none;align=center;verticalAlign=middle;whiteSpace=wrap;rounded=0;fontStyle=1" parent="1" vertex="1">
          <mxGeometry x="458" y="554" width="40" height="30" as="geometry" />
        </mxCell>
        <mxCell id="fAfMOuDEGAaXCi6AJNAk-40" value="512" style="text;html=1;strokeColor=none;fillColor=none;align=center;verticalAlign=middle;whiteSpace=wrap;rounded=0;fontStyle=1" parent="1" vertex="1">
          <mxGeometry x="630" y="536.5" width="40" height="30" as="geometry" />
        </mxCell>
        <mxCell id="fAfMOuDEGAaXCi6AJNAk-41" value="" style="shape=cube;whiteSpace=wrap;html=1;boundedLbl=1;backgroundOutline=1;darkOpacity=0.05;darkOpacity2=0.1;strokeColor=#C73500;fillColor=#fa6800;fontColor=#000000;size=8;" parent="1" vertex="1">
          <mxGeometry x="595" y="470.5" width="85" height="26.5" as="geometry" />
        </mxCell>
        <mxCell id="fAfMOuDEGAaXCi6AJNAk-42" value="3" style="text;html=1;strokeColor=none;fillColor=none;align=center;verticalAlign=middle;whiteSpace=wrap;rounded=0;fontStyle=1" parent="1" vertex="1">
          <mxGeometry x="575" y="485" width="40" height="30" as="geometry" />
        </mxCell>
        <mxCell id="fAfMOuDEGAaXCi6AJNAk-43" value="3" style="text;html=1;strokeColor=none;fillColor=none;align=center;verticalAlign=middle;whiteSpace=wrap;rounded=0;fontStyle=1" parent="1" vertex="1">
          <mxGeometry x="567" y="465" width="40" height="30" as="geometry" />
        </mxCell>
        <mxCell id="fAfMOuDEGAaXCi6AJNAk-47" value="28" style="text;html=1;strokeColor=none;fillColor=none;align=center;verticalAlign=middle;whiteSpace=wrap;rounded=0;fontStyle=1" parent="1" vertex="1">
          <mxGeometry x="530" y="445" width="40" height="30" as="geometry" />
        </mxCell>
        <mxCell id="fAfMOuDEGAaXCi6AJNAk-49" value="28" style="text;html=1;strokeColor=none;fillColor=none;align=center;verticalAlign=middle;whiteSpace=wrap;rounded=0;fontStyle=1" parent="1" vertex="1">
          <mxGeometry x="555" y="514" width="40" height="30" as="geometry" />
        </mxCell>
        <mxCell id="fAfMOuDEGAaXCi6AJNAk-51" value="" style="shape=cube;whiteSpace=wrap;html=1;boundedLbl=1;backgroundOutline=1;darkOpacity=0.05;darkOpacity2=0.1;strokeColor=#b46504;fillColor=#fad7ac;size=30;" parent="1" vertex="1">
          <mxGeometry x="637" y="938.19" width="150" height="93.62" as="geometry" />
        </mxCell>
        <mxCell id="fAfMOuDEGAaXCi6AJNAk-52" value="1024" style="text;html=1;strokeColor=none;fillColor=none;align=center;verticalAlign=middle;whiteSpace=wrap;rounded=0;fontStyle=1" parent="1" vertex="1">
          <mxGeometry x="800.75" y="524" width="40" height="30" as="geometry" />
        </mxCell>
        <mxCell id="fAfMOuDEGAaXCi6AJNAk-53" value="14" style="text;html=1;strokeColor=none;fillColor=none;align=center;verticalAlign=middle;whiteSpace=wrap;rounded=0;fontStyle=1" parent="1" vertex="1">
          <mxGeometry x="710" y="445" width="40" height="30" as="geometry" />
        </mxCell>
        <mxCell id="fAfMOuDEGAaXCi6AJNAk-54" value="14" style="text;html=1;strokeColor=none;fillColor=none;align=center;verticalAlign=middle;whiteSpace=wrap;rounded=0;fontStyle=1" parent="1" vertex="1">
          <mxGeometry x="727" y="506.5" width="40" height="30" as="geometry" />
        </mxCell>
        <mxCell id="fAfMOuDEGAaXCi6AJNAk-55" value="" style="shape=cube;whiteSpace=wrap;html=1;boundedLbl=1;backgroundOutline=1;darkOpacity=0.05;darkOpacity2=0.1;strokeColor=#C73500;fillColor=#fa6800;fontColor=#000000;size=8;" parent="1" vertex="1">
          <mxGeometry x="761.5" y="470" width="118.5" height="26.5" as="geometry" />
        </mxCell>
        <mxCell id="fAfMOuDEGAaXCi6AJNAk-56" value="3" style="text;html=1;strokeColor=none;fillColor=none;align=center;verticalAlign=middle;whiteSpace=wrap;rounded=0;fontStyle=1" parent="1" vertex="1">
          <mxGeometry x="744" y="486" width="40" height="30" as="geometry" />
        </mxCell>
        <mxCell id="fAfMOuDEGAaXCi6AJNAk-57" value="3" style="text;html=1;strokeColor=none;fillColor=none;align=center;verticalAlign=middle;whiteSpace=wrap;rounded=0;fontStyle=1" parent="1" vertex="1">
          <mxGeometry x="740" y="465" width="31" height="30" as="geometry" />
        </mxCell>
        <mxCell id="fAfMOuDEGAaXCi6AJNAk-59" value="" style="shape=cube;whiteSpace=wrap;html=1;boundedLbl=1;backgroundOutline=1;darkOpacity=0.05;darkOpacity2=0.1;strokeColor=#b46504;fillColor=#fad7ac;size=20;" parent="1" vertex="1">
          <mxGeometry x="920" y="448" width="140" height="60" as="geometry" />
        </mxCell>
        <mxCell id="fAfMOuDEGAaXCi6AJNAk-60" value="" style="shape=cube;whiteSpace=wrap;html=1;boundedLbl=1;backgroundOutline=1;darkOpacity=0.05;darkOpacity2=0.1;strokeColor=#C73500;fillColor=#fa6800;fontColor=#000000;size=8;" parent="1" vertex="1">
          <mxGeometry x="931.75" y="470" width="118.5" height="26.5" as="geometry" />
        </mxCell>
        <mxCell id="fAfMOuDEGAaXCi6AJNAk-61" value="7" style="text;html=1;strokeColor=none;fillColor=none;align=center;verticalAlign=middle;whiteSpace=wrap;rounded=0;fontStyle=1" parent="1" vertex="1">
          <mxGeometry x="891.75" y="456" width="40" height="30" as="geometry" />
        </mxCell>
        <mxCell id="fAfMOuDEGAaXCi6AJNAk-63" value="7" style="text;html=1;strokeColor=none;fillColor=none;align=center;verticalAlign=middle;whiteSpace=wrap;rounded=0;fontStyle=1" parent="1" vertex="1">
          <mxGeometry x="904" y="492.5" width="40" height="30" as="geometry" />
        </mxCell>
        <mxCell id="fAfMOuDEGAaXCi6AJNAk-64" value="3" style="text;html=1;strokeColor=none;fillColor=none;align=center;verticalAlign=middle;whiteSpace=wrap;rounded=0;fontStyle=1" parent="1" vertex="1">
          <mxGeometry x="915" y="464.5" width="26" height="26.5" as="geometry" />
        </mxCell>
        <mxCell id="fAfMOuDEGAaXCi6AJNAk-65" value="3" style="text;html=1;strokeColor=none;fillColor=none;align=center;verticalAlign=middle;whiteSpace=wrap;rounded=0;fontStyle=1" parent="1" vertex="1">
          <mxGeometry x="915" y="482" width="40" height="30" as="geometry" />
        </mxCell>
        <mxCell id="fAfMOuDEGAaXCi6AJNAk-66" value="1024" style="text;html=1;strokeColor=none;fillColor=none;align=center;verticalAlign=middle;whiteSpace=wrap;rounded=0;fontStyle=1" parent="1" vertex="1">
          <mxGeometry x="975" y="508" width="40" height="30" as="geometry" />
        </mxCell>
        <mxCell id="fAfMOuDEGAaXCi6AJNAk-79" value="" style="shape=cube;whiteSpace=wrap;html=1;boundedLbl=1;backgroundOutline=1;darkOpacity=0.05;darkOpacity2=0.1;strokeColor=#b46504;fillColor=#fad7ac;size=20;" parent="1" vertex="1">
          <mxGeometry x="1090" y="448" width="140" height="60" as="geometry" />
        </mxCell>
        <mxCell id="fAfMOuDEGAaXCi6AJNAk-81" value="7" style="text;html=1;strokeColor=none;fillColor=none;align=center;verticalAlign=middle;whiteSpace=wrap;rounded=0;fontStyle=1" parent="1" vertex="1">
          <mxGeometry x="1074" y="492.5" width="40" height="30" as="geometry" />
        </mxCell>
        <mxCell id="fAfMOuDEGAaXCi6AJNAk-84" value="1024" style="text;html=1;strokeColor=none;fillColor=none;align=center;verticalAlign=middle;whiteSpace=wrap;rounded=0;fontStyle=1" parent="1" vertex="1">
          <mxGeometry x="1145" y="508" width="40" height="30" as="geometry" />
        </mxCell>
        <mxCell id="fAfMOuDEGAaXCi6AJNAk-85" value="7" style="text;html=1;strokeColor=none;fillColor=none;align=center;verticalAlign=middle;whiteSpace=wrap;rounded=0;fontStyle=1" parent="1" vertex="1">
          <mxGeometry x="1064" y="458" width="40" height="30" as="geometry" />
        </mxCell>
        <mxCell id="fAfMOuDEGAaXCi6AJNAk-86" value="" style="rounded=0;whiteSpace=wrap;html=1;strokeColor=#b46504;fillColor=#fad7ac;rotation=90;" parent="1" vertex="1">
          <mxGeometry x="1257.5" y="471" width="55" height="20" as="geometry" />
        </mxCell>
        <mxCell id="fAfMOuDEGAaXCi6AJNAk-87" value="4096" style="text;html=1;strokeColor=none;fillColor=none;align=center;verticalAlign=middle;whiteSpace=wrap;rounded=0;fontStyle=1" parent="1" vertex="1">
          <mxGeometry x="1265" y="506.5" width="40" height="30" as="geometry" />
        </mxCell>
        <mxCell id="fAfMOuDEGAaXCi6AJNAk-88" value="" style="endArrow=classic;html=1;" parent="1" edge="1">
          <mxGeometry width="50" height="50" relative="1" as="geometry">
            <mxPoint x="1239" y="499.25" as="sourcePoint" />
            <mxPoint x="1269" y="471" as="targetPoint" />
          </mxGeometry>
        </mxCell>
        <mxCell id="fAfMOuDEGAaXCi6AJNAk-90" value="" style="endArrow=classic;html=1;" parent="1" edge="1">
          <mxGeometry width="50" height="50" relative="1" as="geometry">
            <mxPoint x="1239" y="470.75" as="sourcePoint" />
            <mxPoint x="1269" y="502.5" as="targetPoint" />
          </mxGeometry>
        </mxCell>
        <mxCell id="fAfMOuDEGAaXCi6AJNAk-91" value="" style="shape=cube;whiteSpace=wrap;html=1;boundedLbl=1;backgroundOutline=1;darkOpacity=0.05;darkOpacity2=0.1;strokeColor=#b46504;fillColor=#fad7ac;size=20;" parent="1" vertex="1">
          <mxGeometry x="1355" y="451" width="55" height="60" as="geometry" />
        </mxCell>
        <mxCell id="fAfMOuDEGAaXCi6AJNAk-92" value="30" style="text;html=1;strokeColor=none;fillColor=none;align=center;verticalAlign=middle;whiteSpace=wrap;rounded=0;fontStyle=1" parent="1" vertex="1">
          <mxGeometry x="1373" y="507" width="40" height="30" as="geometry" />
        </mxCell>
        <mxCell id="fAfMOuDEGAaXCi6AJNAk-93" value="7" style="text;html=1;strokeColor=none;fillColor=none;align=center;verticalAlign=middle;whiteSpace=wrap;rounded=0;fontStyle=1" parent="1" vertex="1">
          <mxGeometry x="1339" y="490.5" width="40" height="30" as="geometry" />
        </mxCell>
        <mxCell id="fAfMOuDEGAaXCi6AJNAk-94" value="7" style="text;html=1;strokeColor=none;fillColor=none;align=center;verticalAlign=middle;whiteSpace=wrap;rounded=0;fontStyle=1" parent="1" vertex="1">
          <mxGeometry x="1329" y="456" width="40" height="30" as="geometry" />
        </mxCell>
        <mxCell id="fAfMOuDEGAaXCi6AJNAk-106" value="" style="endArrow=classic;html=1;" parent="1" edge="1">
          <mxGeometry width="50" height="50" relative="1" as="geometry">
            <mxPoint x="1305" y="470.5" as="sourcePoint" />
            <mxPoint x="1335" y="502.25" as="targetPoint" />
          </mxGeometry>
        </mxCell>
        <mxCell id="fAfMOuDEGAaXCi6AJNAk-107" value="" style="endArrow=classic;html=1;" parent="1" edge="1">
          <mxGeometry width="50" height="50" relative="1" as="geometry">
            <mxPoint x="1305" y="499.25" as="sourcePoint" />
            <mxPoint x="1335" y="471" as="targetPoint" />
          </mxGeometry>
        </mxCell>
      </root>
    </mxGraphModel>
  </diagram>
</mxfile>
